<?xml version="1.0" encoding="iso-8859-1"?>
<svg xmlns="http://www.w3.org/2000/svg" xmlns:xlink="http://www.w3.org/1999/xlink" version="1.1" id="Layer_1" x="0px" y="0px" viewBox="0 0 40 40" style="enable-background:new 0 0 40 40;" xml:space="preserve">
<g>
	<rect x="4.5" y="7.5" style="fill:#DFF0FE;" width="34" height="28"/>
	<g>
		<path style="fill:#4788C7;" d="M38,8v27H5V8H38 M39,7H4v29h35V7L39,7z"/>
	</g>
</g>
<g>
	<rect x="1.5" y="4.5" style="fill:#DFF0FE;" width="34" height="28"/>
	<g>
		<path style="fill:#4788C7;" d="M35,5v27H2V5H35 M36,4H1v29h35V4L36,4z"/>
	</g>
</g>
<polygon style="fill:#98CCFD;" points="25,18 18,24 28,32 35,32 35,27 "/>
<ellipse style="fill:#FFFFFF;" cx="28.541" cy="11.5" rx="2.541" ry="2.5"/>
<polygon style="fill:#B6DCFE;" points="30,32 2,32 2,25 13,16 "/>
<g>
	<path style="fill:#FFFFFF;" d="M33,7v23H4V7H33 M35,5H2v27h33V5L35,5z"/>
</g>
</svg>
